<svg width="110px" height="110px" id="Layer_1" data-name="Layer 1" xmlns="http://www.w3.org/2000/svg" viewBox="0 0 500 500"><defs><style>.cls-1{fill:#1d1d1b;}</style></defs><path class="cls-1" d="M109.78,261.91a7.94,7.94,0,0,0,3.47-4,5.76,5.76,0,0,0,.32-2l.07-2c.18-2.67.42-5.33.64-8s.68-5.3,1-7.95,1-5.26,1.41-7.89a162,162,0,0,1,320.94,31.86A160.85,160.85,0,0,1,119.12,293.3c-.46-2.6-1-5.18-1.37-7.78a68.5,68.5,0,0,0-1.62-7.78,55.78,55.78,0,0,0-2.46-7.81,38.73,38.73,0,0,0-3.89-8h20a29.31,29.31,0,0,0-3.49,7.41,40.36,40.36,0,0,0-1.33,7.56,45.17,45.17,0,0,0,.26,7.54c.33,2.49.84,4.95,1.25,7.42A153.33,153.33,0,0,0,276.93,415.78a155.24,155.24,0,0,0,30-2.91,152.59,152.59,0,0,0,28.87-8.76,153.14,153.14,0,0,0-.48-283.26,151.85,151.85,0,0,0-198.08,83.22,150.36,150.36,0,0,0-8.39,28.38c-.4,2.44-.88,4.86-1.21,7.31s-.62,4.9-.85,7.36-.36,4.92-.5,7.38l0,1.86a5.13,5.13,0,0,0,.22,1.85,6.75,6.75,0,0,0,3.27,3.7Z"/><path d="M232,168.79c-14.14,2.17-15.65,3.65-15.65,24.33v89.33c0,31.79-3.55,50-16.86,65.46a59.87,59.87,0,0,1-18.22,14.41l-3-7.74c10.5-6.76,16.32-17.6,18.35-32.1,1.66-12.17,1.88-26.63,1.88-46.87V193.12c0-20.68-1.7-22.4-16.68-24.33V161.5H232Z"/><path d="M340,305.8v-5.4c14.76-1.46,15.37-2.59,15.22-21.55l.12-73.83c-14.63,33-37,82-44.56,100.78h-5c-7.22-19-26.45-66.21-40.18-99-3,62.67-3.12,76.52-3.12,80.54.18,10.15,4.58,11.81,17.21,13.09v5.4H236.13v-5.4c10.55-1.07,15-3.22,16.45-13.27,1-7.57,1.31-14.82,5.95-80.25.7-9.36-1-12.79-17-14.25v-5.4h33.12L314,277.55l41.82-90.32H389v5.4c-15.49,1.76-17.43,3.37-17.06,16.47l.86,69.75c.63,19,1.21,19.84,17,21.55v5.4Z"/></svg>
